<svg id="Ebene_1" data-name="Ebene 1" xmlns="http://www.w3.org/2000/svg" xmlns:xlink="http://www.w3.org/1999/xlink" viewBox="0 0 1721.9 222.1"><defs><style>.cls-1{fill:none;}.cls-2{clip-path:url(#clip-path);}.cls-3{opacity:0.02;isolation:isolate;}</style><clipPath id="clip-path"><rect class="cls-1" y="-6.6" width="1721.9" height="236.6"/></clipPath></defs><title>background2</title><g class="cls-2"><polygon class="cls-3" points="-163.7 222.1 -227.8 111.1 -163.7 0 -35.5 0 28.6 111.1 -35.5 222.1 -163.7 222.1"/><polygon class="cls-3" points="-100 222.1 -164.1 111.1 -100 0 28.2 0 92.3 111.1 28.2 222.1 -100 222.1"/><polygon class="cls-3" points="-35.5 222.1 -99.6 111.1 -35.5 0 92.7 0 156.8 111.1 92.7 222.1 -35.5 222.1"/><polygon class="cls-3" points="28.2 222.1 -35.9 111.1 28.2 0 156.4 0 220.5 111.1 156.4 222.1 28.2 222.1"/><polygon class="cls-3" points="92.7 222.1 28.6 111.1 92.7 0 220.9 0 285 111.1 220.9 222.1 92.7 222.1"/><polygon class="cls-3" points="156.4 222.1 92.3 111.1 156.4 0 284.6 0 348.7 111.1 284.6 222.1 156.4 222.1"/><polygon class="cls-3" points="220.9 222.1 156.8 111.1 220.9 0 349.1 0 413.2 111.1 349.1 222.1 220.9 222.1"/><polygon class="cls-3" points="284.6 222.1 220.5 111.1 284.6 0 412.8 0 476.9 111.1 412.8 222.1 284.6 222.1"/><polygon class="cls-3" points="349.1 222.1 285 111.1 349.1 0 477.3 0 541.4 111.1 477.3 222.1 349.1 222.1"/><polygon class="cls-3" points="412.8 222.1 348.7 111.1 412.8 0 541 0 605.1 111.1 541 222.1 412.8 222.1"/><polygon class="cls-3" points="476.5 222.1 412.4 111.1 476.5 0 604.7 0 668.8 111.1 604.7 222.1 476.5 222.1"/><polygon class="cls-3" points="541 222.1 476.9 111.1 541 0 669.2 0 733.3 111.1 669.2 222.1 541 222.1"/><polygon class="cls-3" points="604.7 222.1 540.6 111.1 604.7 0 732.9 0 797 111.1 732.9 222.1 604.7 222.1"/><polygon class="cls-3" points="669.2 222.1 605.1 111.1 669.2 0 797.4 0 861.5 111.1 797.4 222.1 669.2 222.1"/><polygon class="cls-3" points="732.9 222.1 668.8 111.1 732.9 0 861.1 0 925.2 111.1 861.1 222.1 732.9 222.1"/><polygon class="cls-3" points="796.6 222.1 732.5 111.1 796.6 0 924.8 0 988.9 111.1 924.8 222.1 796.6 222.1"/><polygon class="cls-3" points="860.3 222.1 796.2 111.1 860.3 0 988.5 0 1052.6 111.1 988.5 222.1 860.3 222.1"/><polygon class="cls-3" points="925.6 222.1 861.5 111.1 925.6 0 1053.8 0 1117.9 111.1 1053.8 222.1 925.6 222.1"/><polygon class="cls-3" points="989.3 222.1 925.2 111.1 989.3 0 1117.5 0 1181.6 111.1 1117.5 222.1 989.3 222.1"/><polygon class="cls-3" points="1053 222.1 988.9 111.1 1053 0 1181.2 0 1245.3 111.1 1181.2 222.1 1053 222.1"/><polygon class="cls-3" points="1116.7 222.1 1052.6 111.1 1116.7 0 1244.9 0 1309 111.1 1244.9 222.1 1116.7 222.1"/><polygon class="cls-3" points="1182 222.1 1117.9 111.1 1182 0 1310.2 0 1374.3 111.1 1310.2 222.1 1182 222.1"/><polygon class="cls-3" points="1246.5 222.1 1182.4 111.1 1246.5 0 1374.7 0 1438.8 111.1 1374.7 222.1 1246.5 222.1"/><polygon class="cls-3" points="1307.8 222.1 1243.7 111.1 1307.8 0 1436 0 1500.1 111.1 1436 222.1 1307.8 222.1"/><polygon class="cls-3" points="1371.5 222.1 1307.4 111.1 1371.5 0 1499.7 0 1563.8 111.1 1499.7 222.1 1371.5 222.1"/><polygon class="cls-3" points="1436 222.1 1371.9 111.1 1436 0 1564.2 0 1628.3 111.1 1564.2 222.1 1436 222.1"/><polygon class="cls-3" points="1499.7 222.1 1435.6 111.1 1499.7 0 1627.9 0 1692 111.1 1627.9 222.1 1499.7 222.1"/><polygon class="cls-3" points="1564.2 222.1 1500.1 111.1 1564.2 0 1692.4 0 1756.5 111.1 1692.4 222.1 1564.2 222.1"/><polygon class="cls-3" points="1627.9 222.1 1563.8 111.1 1627.9 0 1756.1 0 1820.2 111.1 1756.1 222.1 1627.9 222.1"/><polygon class="cls-3" points="1692.4 222.1 1628.3 111.1 1692.4 0 1820.6 0 1884.7 111.1 1820.6 222.1 1692.4 222.1"/><polygon class="cls-3" points="1753.7 222.1 1689.6 111.1 1753.7 0 1881.9 0 1946 111.1 1881.9 222.1 1753.7 222.1"/></g></svg>