<?xml version="1.0" encoding="utf-8"?>
<!-- Generator: Adobe Illustrator 19.2.1, SVG Export Plug-In . SVG Version: 6.00 Build 0)  -->
<svg version="1.1" id="Ebene_1" xmlns="http://www.w3.org/2000/svg" xmlns:xlink="http://www.w3.org/1999/xlink" x="0px" y="0px"
	 viewBox="0 0 2234 263.9" style="enable-background:new 0 0 2234 263.9;" xml:space="preserve">
<style type="text/css">
	.st0{clip-path:url(#SVGID_2_);}
	.st1{opacity:2.000000e-02;}
</style>
<g>
	<defs>
		<rect id="SVGID_1_" x="248.1" y="14.8" width="1721.9" height="236.6"/>
	</defs>
	<clipPath id="SVGID_2_">
		<use xlink:href="#SVGID_1_"  style="overflow:visible;"/>
	</clipPath>
	<g class="st0">
		<polygon class="st1" points="84.4,243.5 20.3,132.5 84.4,21.4 212.6,21.4 276.7,132.5 212.6,243.5 		"/>
		<polygon class="st1" points="148.1,243.5 84,132.5 148.1,21.4 276.3,21.4 340.4,132.5 276.3,243.5 		"/>
		<polygon class="st1" points="212.6,243.5 148.5,132.5 212.6,21.4 340.8,21.4 404.9,132.5 340.8,243.5 		"/>
		<polygon class="st1" points="276.3,243.5 212.2,132.5 276.3,21.4 404.5,21.4 468.6,132.5 404.5,243.5 		"/>
		<polygon class="st1" points="340.8,243.5 276.7,132.5 340.8,21.4 469,21.4 533.1,132.5 469,243.5 		"/>
		<polygon class="st1" points="404.5,243.5 340.4,132.5 404.5,21.4 532.7,21.4 596.8,132.5 532.7,243.5 		"/>
		<polygon class="st1" points="469,243.5 404.9,132.5 469,21.4 597.2,21.4 661.3,132.5 597.2,243.5 		"/>
		<polygon class="st1" points="532.7,243.5 468.6,132.5 532.7,21.4 660.9,21.4 725,132.5 660.9,243.5 		"/>
		<polygon class="st1" points="597.2,243.5 533.1,132.5 597.2,21.4 725.4,21.4 789.5,132.5 725.4,243.5 		"/>
		<polygon class="st1" points="660.9,243.5 596.8,132.5 660.9,21.4 789.1,21.4 853.2,132.5 789.1,243.5 		"/>
		<polygon class="st1" points="724.6,243.5 660.5,132.5 724.6,21.4 852.8,21.4 916.9,132.5 852.8,243.5 		"/>
		<polygon class="st1" points="789.1,243.5 725,132.5 789.1,21.4 917.3,21.4 981.4,132.5 917.3,243.5 		"/>
		<polygon class="st1" points="852.8,243.5 788.7,132.5 852.8,21.4 981,21.4 1045.1,132.5 981,243.5 		"/>
		<polygon class="st1" points="917.3,243.5 853.2,132.5 917.3,21.4 1045.5,21.4 1109.6,132.5 1045.5,243.5 		"/>
		<polygon class="st1" points="981,243.5 916.9,132.5 981,21.4 1109.2,21.4 1173.3,132.5 1109.2,243.5 		"/>
		<polygon class="st1" points="1044.7,243.5 980.6,132.5 1044.7,21.4 1172.9,21.4 1237,132.5 1172.9,243.5 		"/>
		<polygon class="st1" points="1108.4,243.5 1044.3,132.5 1108.4,21.4 1236.6,21.4 1300.7,132.5 1236.6,243.5 		"/>
		<polygon class="st1" points="1173.7,243.5 1109.6,132.5 1173.7,21.4 1301.9,21.4 1366,132.5 1301.9,243.5 		"/>
		<polygon class="st1" points="1237.4,243.5 1173.3,132.5 1237.4,21.4 1365.6,21.4 1429.7,132.5 1365.6,243.5 		"/>
		<polygon class="st1" points="1301.1,243.5 1237,132.5 1301.1,21.4 1429.3,21.4 1493.4,132.5 1429.3,243.5 		"/>
		<polygon class="st1" points="1364.8,243.5 1300.7,132.5 1364.8,21.4 1493,21.4 1557.1,132.5 1493,243.5 		"/>
		<polygon class="st1" points="1430.1,243.5 1366,132.5 1430.1,21.4 1558.3,21.4 1622.4,132.5 1558.3,243.5 		"/>
		<polygon class="st1" points="1494.6,243.5 1430.5,132.5 1494.6,21.4 1622.8,21.4 1686.9,132.5 1622.8,243.5 		"/>
		<polygon class="st1" points="1555.9,243.5 1491.8,132.5 1555.9,21.4 1684.1,21.4 1748.2,132.5 1684.1,243.5 		"/>
		<polygon class="st1" points="1619.6,243.5 1555.5,132.5 1619.6,21.4 1747.8,21.4 1811.9,132.5 1747.8,243.5 		"/>
		<polygon class="st1" points="1684.1,243.5 1620,132.5 1684.1,21.4 1812.3,21.4 1876.4,132.5 1812.3,243.5 		"/>
		<polygon class="st1" points="1747.8,243.5 1683.7,132.5 1747.8,21.4 1876,21.4 1940.1,132.5 1876,243.5 		"/>
		<polygon class="st1" points="1812.3,243.5 1748.2,132.5 1812.3,21.4 1940.5,21.4 2004.6,132.5 1940.5,243.5 		"/>
		<polygon class="st1" points="1876,243.5 1811.9,132.5 1876,21.4 2004.2,21.4 2068.3,132.5 2004.2,243.5 		"/>
		<polygon class="st1" points="1940.5,243.5 1876.4,132.5 1940.5,21.4 2068.7,21.4 2132.8,132.5 2068.7,243.5 		"/>
		<polygon class="st1" points="2001.8,243.5 1937.7,132.5 2001.8,21.4 2130,21.4 2194.1,132.5 2130,243.5 		"/>
	</g>
</g>
</svg>
