<?xml version="1.0" encoding="utf-8"?>
<!-- Generator: Adobe Illustrator 19.2.1, SVG Export Plug-In . SVG Version: 6.00 Build 0)  -->
<svg version="1.1" id="Ebene_1" xmlns="http://www.w3.org/2000/svg" xmlns:xlink="http://www.w3.org/1999/xlink" x="0px" y="0px"
	 viewBox="0 0 284.5 263.9" style="enable-background:new 0 0 284.5 263.9;" xml:space="preserve">
<style type="text/css">
	.st0{fill:#EED5B4;}
	.st1{fill:none;}
	.st2{fill:#FFFFFF;}
</style>
<polygon class="st0" points="78.4,243.5 14.3,132.5 78.4,21.4 206.6,21.4 270.7,132.5 206.6,243.5 "/>
<g>
	<g>
		<path class="st1" d="M176.8,81.4V66.1H99.1c-5,0-9,4-9,9v118.1c0,5,4,9,9,9h88.1c5,0,9-4,9-9v-107h-14.5
			C179,86.3,176.8,84.1,176.8,81.4z"/>
		<path class="st2" d="M187.1,205.5H99.1c-6.7,0-12.2-5.5-12.2-12.2V75.2c0-6.7,5.5-12.2,12.2-12.2H180v18.4c0,0.9,0.8,1.7,1.7,1.7
			h17.7v110.2C199.4,200,193.9,205.5,187.1,205.5z M99.1,69.3c-3.2,0-5.9,2.6-5.9,5.9v118.1c0,3.2,2.6,5.9,5.9,5.9h88.1
			c3.2,0,5.9-2.6,5.9-5.9V89.4h-11.3c-4.4,0-8-3.6-8-8V69.3H99.1z"/>
	</g>
	<g>
		<path class="st1" d="M112,174v8.8c0,3,2.5,5.5,5.5,5.5h53.8c3,0,5.5-2.5,5.5-5.5v-8.5"/>
		<path class="st2" d="M171.4,191.5h-53.8c-4.8,0-8.7-3.9-8.7-8.7V174h6.3v8.8c0,1.3,1.1,2.3,2.3,2.3h53.8c1.3,0,2.3-1.1,2.3-2.3
			v-8.5h6.3v8.5C180,187.6,176.1,191.5,171.4,191.5z"/>
	</g>
	<g>
		<rect x="183.9" y="61.2" transform="matrix(0.7209 -0.693 0.693 0.7209 0.1179 150.583)" class="st2" width="6.3" height="27.9"/>
	</g>
	<g>
		<path class="st2" d="M102.4,133.2v-31.6h10.2c3.9,0,6.4,0.2,7.6,0.5c1.8,0.5,3.3,1.5,4.5,3.1c1.2,1.6,1.8,3.6,1.8,6.1
			c0,1.9-0.4,3.6-1.1,4.9c-0.7,1.3-1.6,2.4-2.7,3.1c-1.1,0.8-2.2,1.3-3.3,1.5c-1.5,0.3-3.7,0.5-6.6,0.5h-4.2v11.9H102.4z
			 M108.8,106.9v9h3.5c2.5,0,4.2-0.2,5-0.5c0.8-0.3,1.5-0.8,2-1.5c0.5-0.7,0.7-1.5,0.7-2.5c0-1.1-0.3-2.1-1-2.8
			c-0.7-0.7-1.5-1.2-2.6-1.4c-0.8-0.1-2.3-0.2-4.6-0.2H108.8z"/>
		<path class="st2" d="M131.8,101.6h11.6c2.6,0,4.6,0.2,6,0.6c1.9,0.5,3.4,1.5,4.8,2.9c1.3,1.4,2.3,3.1,3,5.1s1,4.5,1,7.5
			c0,2.6-0.3,4.8-1,6.7c-0.8,2.3-1.9,4.2-3.4,5.6c-1.1,1.1-2.6,1.9-4.5,2.5c-1.4,0.4-3.3,0.7-5.6,0.7h-12V101.6z M138.1,106.9v20.9
			h4.8c1.8,0,3.1-0.1,3.9-0.3c1-0.3,1.9-0.7,2.6-1.3c0.7-0.6,1.2-1.6,1.7-3c0.4-1.4,0.6-3.3,0.6-5.8c0-2.4-0.2-4.3-0.6-5.6
			c-0.4-1.3-1-2.3-1.8-3.1c-0.8-0.7-1.8-1.2-2.9-1.5c-0.9-0.2-2.6-0.3-5.2-0.3H138.1z"/>
		<path class="st2" d="M163.7,133.2v-31.6h21.6v5.3H170v7.5h13.2v5.3H170v13.4H163.7z"/>
	</g>
	<g>
		<path class="st2" d="M172.9,153.9l-23.6,23.6c-2.2,2.2-5.8,2.2-8,0l-23.6-23.6c-3.6-3.6-1-9.6,4-9.6l47.3,0
			C173.9,144.2,176.4,150.3,172.9,153.9z"/>
	</g>
</g>
</svg>
